ply
format ascii 1.0
comment Created by Blender 2.79 (sub 0) - www.blender.org, source file: ''
element vertex 363
property float x
property float y
property float z
property float nx
property float ny
property float nz
property float s
property float t
element face 500
property list uchar uint vertex_indices
end_header
0.075213 0.027040 0.103404 0.771783 0.611408 0.174535 0.405483 0.706984
0.075111 0.027265 0.104318 0.901517 -0.263436 0.343242 0.403071 0.707574
0.072875 0.025652 0.105825 0.347789 0.325632 0.879177 0.399044 0.703495
0.075213 0.027040 0.103404 0.771783 0.611408 0.174535 0.973221 0.377650
0.065154 0.028063 0.105264 0.101779 0.842524 0.528916 0.977616 0.351197
0.072875 0.025652 0.105825 0.347789 0.325632 0.879177 0.979498 0.371400
0.074669 0.028718 0.068677 0.426405 0.904233 0.022248 0.881376 0.378043
0.074669 0.028718 0.068677 0.426405 0.904233 0.022248 0.497346 0.710550
0.075111 0.027265 0.104318 0.901517 -0.263436 0.343242 0.377852 0.764029
0.072875 0.025652 0.105825 0.347789 0.325632 0.879177 0.372077 0.759810
0.075447 0.020313 0.104384 0.886380 0.046937 0.460524 0.379079 0.746355
0.076468 0.026888 0.069661 0.924345 0.381237 0.014588 0.494716 0.705917
0.075447 0.020313 0.104384 0.886380 0.046937 0.460524 0.402762 0.689882
0.065154 0.028063 0.105264 0.101779 0.842524 0.528916 0.351714 0.765550
0.054501 0.028408 0.105464 0.044099 0.857387 0.512711 0.323773 0.765880
0.053222 0.025777 0.107605 0.067507 0.376354 0.923978 0.320563 0.759119
0.048177 0.031083 0.076809 0.077273 0.996277 0.037843 0.901504 0.308209
0.028349 0.031403 0.094310 0.049287 0.993530 0.102023 0.946748 0.255348
0.054501 0.028408 0.105464 0.044099 0.857387 0.512711 0.977593 0.323278
0.071019 0.003597 0.109055 0.427869 0.095676 0.898740 0.368328 0.703585
0.037719 0.006417 0.111442 0.031495 0.111454 0.993255 0.280908 0.709052
0.039142 0.028903 0.106350 0.047700 0.831965 0.552721 0.283492 0.766352
0.039142 0.028903 0.106350 0.047700 0.831965 0.552721 0.979139 0.282995
0.029907 0.026482 0.108370 0.034394 0.348186 0.936766 0.259413 0.759715
0.071019 0.003597 0.109055 0.427869 0.095676 0.898740 0.390065 0.647419
0.074847 0.004458 0.105310 0.668599 0.020356 0.743339 0.400004 0.649543
0.074847 0.004458 0.105310 0.668599 0.020356 0.743339 0.378304 0.705974
0.075549 -0.008105 0.105071 0.903867 -0.036287 0.426252 0.380769 0.674037
0.075549 -0.008105 0.105071 0.903867 -0.036287 0.426252 0.400394 0.617562
0.076288 -0.007946 0.093655 0.998779 -0.016724 0.046113 0.430589 0.617737
0.076962 -0.008517 0.063118 0.999817 -0.017853 -0.003998 0.511335 0.615668
0.016226 0.029753 0.107080 0.046724 0.799799 0.598407 0.223384 0.767339
0.016226 0.029753 0.107080 0.046724 0.799799 0.598407 0.979878 0.222924
0.041005 -0.000163 0.111931 0.030000 0.022980 0.999268 0.289854 0.692474
0.063683 -0.000743 0.111370 0.093570 0.143864 0.985137 0.349326 0.692161
0.070667 -0.007384 0.109861 0.423841 -0.068972 0.903073 0.367960 0.675621
0.070667 -0.007384 0.109861 0.423841 -0.068972 0.903073 0.387720 0.619485
-0.002838 0.028074 0.108527 0.024567 0.431837 0.901608 0.173500 0.762088
0.004075 0.007318 0.111802 0.010315 0.089724 0.995911 0.192672 0.709619
0.011168 0.032637 0.085315 0.032777 0.997986 0.054048 0.922072 0.210807
-0.001969 0.031289 0.105504 0.031465 0.901791 0.430952 0.974769 0.175335
-0.001969 0.031289 0.105504 0.031465 0.901791 0.430952 0.175603 0.770314
-0.014183 0.013032 0.111262 0.018616 0.120823 0.992492 0.144525 0.723224
-0.011910 -0.006913 0.112342 0.017304 -0.040040 0.999023 0.151484 0.672581
0.021638 -0.006658 0.111856 0.006867 -0.046175 0.998901 0.239409 0.674952
0.076082 0.027708 0.047357 0.907743 0.419477 -0.003021 0.553712 0.707553
0.074739 0.029025 0.035291 0.507584 0.861538 -0.007141 0.585642 0.710657
0.074739 0.029025 0.035291 0.507584 0.861538 -0.007141 0.793105 0.379977
0.039582 0.032499 0.039824 0.071444 0.997314 0.014283 0.803270 0.287631
0.015825 0.033324 0.060037 0.036225 0.999023 0.024445 0.855479 0.224331
-0.015598 0.032734 0.095530 0.014618 0.996796 0.078585 0.947693 0.140151
-0.022944 0.031379 0.107109 0.014496 0.819971 0.572161 0.977923 0.120303
-0.022944 0.031379 0.107109 0.014496 0.819971 0.572161 0.120624 0.769469
-0.032909 0.027550 0.109206 0.019807 0.317270 0.948088 0.094704 0.759211
0.022819 -0.018302 0.110836 -0.010163 -0.134556 0.990844 0.243083 0.645380
0.049167 -0.029381 0.108438 0.056063 -0.350200 0.934965 0.312691 0.618537
0.072719 -0.031724 0.104895 0.443281 -0.448714 0.775933 0.374531 0.613786
0.072719 -0.031724 0.104895 0.443281 -0.448714 0.775933 0.400388 0.557436
0.074159 -0.031956 0.103177 0.796350 -0.500595 0.339427 0.404933 0.556812
0.076444 -0.008047 0.036837 0.999390 -0.029176 -0.018860 0.580841 0.616331
-0.037629 0.032854 0.095805 -0.011597 0.997497 0.069613 0.947274 0.082423
-0.011027 0.033612 0.069299 0.010743 0.999573 0.026063 0.878576 0.153501
-0.033761 0.033550 0.072843 -0.012482 0.999664 0.021516 0.886766 0.093758
-0.037006 0.031679 0.106969 0.026734 0.856868 0.514786 0.976824 0.083471
-0.037006 0.031679 0.106969 0.026734 0.856868 0.514786 0.083746 0.769510
-0.045772 0.029565 0.109227 -0.004944 0.482894 0.875637 0.060885 0.763679
-0.061472 0.012949 0.111855 -0.169286 0.162481 0.972076 0.020571 0.720586
-0.060588 0.005062 0.113149 -0.137547 0.103549 0.985046 0.023288 0.700558
-0.029114 0.006154 0.112454 0.037996 0.116825 0.992401 0.105735 0.704954
0.076043 -0.030119 0.079928 0.983703 -0.178991 0.015320 0.466459 0.561023
0.005841 -0.030695 0.108471 0.014466 -0.431684 0.901883 0.199186 0.612970
-0.015978 -0.020083 0.110873 0.012360 -0.165807 0.986053 0.141470 0.638857
-0.060029 0.032593 0.085654 -0.060701 0.997436 0.037782 0.919272 0.024274
-0.065370 0.030828 0.107061 -0.314951 0.807855 0.498123 0.975594 0.009164
-0.045772 0.029565 0.109227 -0.004944 0.482894 0.875637 0.982336 0.060394
-0.065370 0.030828 0.107061 -0.314951 0.807855 0.498123 0.009438 0.765890
-0.065045 0.029373 0.107919 -0.247200 0.317423 0.915464 0.010368 0.762203
0.075035 -0.033025 0.087592 0.706290 -0.706626 0.042512 0.446131 0.553779
0.074159 -0.031956 0.103177 0.796350 -0.500595 0.339427 0.377422 0.591893
0.070962 -0.033552 0.103208 0.204016 -0.918149 0.339579 0.369044 0.591778
0.075035 -0.033025 0.087592 0.706290 -0.706626 0.042512 0.380682 0.550741
0.072719 -0.031724 0.104895 0.443281 -0.448714 0.775933 0.373543 0.596347
0.032714 -0.031375 0.107931 0.005005 -0.516343 0.856349 0.269660 0.612619
0.056340 -0.033474 0.105242 0.042817 -0.851314 0.522843 0.331685 0.608491
-0.067511 0.032000 0.083380 -0.615864 0.786676 0.042787 0.912872 0.004794
-0.066959 0.029570 0.106904 -0.786340 0.404035 0.467299 0.005336 0.762606
-0.066959 0.029570 0.106904 -0.786340 0.404035 0.467299 0.975095 0.005013
0.056340 -0.033474 0.105242 0.042817 -0.851314 0.522843 0.330594 0.596264
-0.067155 0.001764 0.111546 -0.646016 -0.005799 0.763268 0.006231 0.691831
0.075916 0.026388 0.016429 0.960662 0.277413 -0.011536 0.635475 0.703566
-0.038520 0.001194 0.113530 0.020234 0.041963 0.998901 0.081330 0.691846
0.075494 -0.031411 0.060611 0.862819 -0.505081 -0.019013 0.517513 0.557343
-0.018855 0.034209 0.038396 -0.004822 0.999878 0.013611 0.796460 0.134616
-0.066959 0.029570 0.106904 -0.786340 0.404035 0.467299 0.977377 0.542828
-0.068801 0.000218 0.108144 -0.954985 -0.038392 0.294137 0.981082 0.468131
-0.067155 0.001764 0.111546 -0.646016 -0.005799 0.763268 0.990049 0.472121
-0.067511 0.032000 0.083380 -0.615864 0.786676 0.042787 0.915137 0.548663
-0.068673 0.028738 0.081812 -0.981048 0.189093 0.041536 0.911042 0.540334
-0.069402 0.003290 0.097308 -0.997864 0.027741 0.058657 0.952386 0.475787
-0.059957 0.000438 0.113436 -0.126408 -0.030396 0.991485 0.025175 0.688824
-0.048545 -0.013942 0.112238 -0.023988 -0.154149 0.987732 0.055801 0.652814
0.008941 0.033977 0.033858 0.026399 0.999542 0.014100 0.785906 0.207671
0.025963 0.033456 0.016323 0.050996 0.998657 0.007385 0.740427 0.253183
0.055066 0.031537 0.005591 0.091189 0.995758 0.009613 0.713560 0.329993
0.074050 0.029398 0.019012 0.520463 0.853847 -0.003296 0.750029 0.379027
-0.066623 0.032258 0.058125 -0.400494 0.916257 -0.005432 0.846144 0.008447
-0.050865 0.033297 0.056195 -0.047273 0.998871 0.003418 0.841860 0.049825
0.032714 -0.031375 0.107931 0.005005 -0.516343 0.856349 0.268495 0.601932
0.005841 -0.030695 0.108471 0.014466 -0.431684 0.901883 0.198023 0.601719
0.027004 -0.033706 0.105272 -0.003479 -0.920011 0.391858 0.253698 0.594552
-0.069147 0.029758 0.055479 -0.912381 0.408887 0.017457 0.841393 0.542540
-0.069147 0.029758 0.055479 -0.912381 0.408887 0.017457 0.839015 0.001978
0.036655 -0.035033 0.089578 0.007294 -0.998810 0.047853 0.279967 0.553650
0.049812 -0.035096 0.070732 0.034852 -0.999359 0.005310 0.315615 0.504628
0.071767 -0.033797 0.065957 0.279855 -0.959838 -0.018708 0.373452 0.493343
-0.063584 -0.015537 0.111036 -0.367229 -0.153661 0.917325 0.016453 0.647984
0.000470 -0.033238 0.106350 0.002228 -0.889431 0.457045 0.184083 0.595782
-0.022822 -0.031320 0.108360 -0.006623 -0.607501 0.794244 0.124082 0.609910
0.000470 -0.033238 0.106350 0.002228 -0.889431 0.457045 0.185224 0.606226
-0.068045 -0.029677 0.104766 -0.799066 -0.501175 0.332072 0.972570 0.391988
-0.065714 -0.028944 0.107578 -0.438643 -0.399457 0.804987 0.979984 0.393903
-0.068801 0.000218 0.108144 -0.954985 -0.038392 0.294137 0.001978 0.687813
-0.065714 -0.028944 0.107578 -0.438643 -0.399457 0.804987 0.011523 0.613758
-0.063584 -0.015537 0.111036 -0.367229 -0.153661 0.917325 0.988929 0.428084
0.074050 0.029398 0.019012 0.520463 0.853847 -0.003296 0.628693 0.711276
0.075494 -0.031411 0.060611 0.862819 -0.505081 -0.019013 0.383546 0.479439
-0.044089 -0.030519 0.108896 -0.016175 -0.541276 0.840663 0.068294 0.610856
0.075815 -0.009544 0.003533 0.998535 -0.051515 -0.015259 0.668880 0.611847
0.074617 -0.029745 0.027613 0.948576 -0.314829 -0.032105 0.604803 0.560912
-0.003908 -0.034590 0.090345 -0.017426 -0.998779 0.046144 0.173597 0.553201
0.076146 0.008373 -0.001936 0.999939 0.007263 -0.005768 0.683690 0.657343
0.075028 0.027575 -0.009484 0.914457 0.403363 -0.031709 0.704020 0.706062
0.074018 0.029328 0.003799 0.540605 0.841243 0.001556 0.668923 0.710790
0.003781 0.034420 -0.000689 0.024262 0.999664 0.008728 0.694296 0.195963
-0.023401 0.034440 0.019389 -0.012543 0.999817 0.013367 0.745971 0.123702
-0.048757 0.033503 0.027125 -0.060366 0.998138 0.005860 0.765107 0.056872
-0.067863 0.031807 0.034531 -0.486343 0.873745 0.004273 0.783697 0.006436
-0.070524 0.010547 0.058849 -0.998566 0.046907 0.025636 0.850583 0.493687
0.074018 0.029328 0.003799 0.540605 0.841243 0.001556 0.709803 0.379742
-0.070147 -0.009642 0.085047 -0.998657 -0.011780 0.049867 0.920148 0.442689
0.019657 -0.035451 0.059239 -0.004120 -0.999969 0.002167 0.237283 0.472402
0.049276 -0.034841 0.033851 0.046327 -0.998810 -0.014710 0.316482 0.407088
-0.022822 -0.031320 0.108360 -0.006623 -0.607501 0.794244 0.122903 0.599676
-0.019220 -0.033483 0.104516 -0.028047 -0.965728 0.257942 0.132585 0.589731
-0.044089 -0.030519 0.108896 -0.016175 -0.541276 0.840663 0.067122 0.599796
0.073171 -0.032947 0.039578 0.506058 -0.861629 -0.038331 0.378757 0.423690
-0.069823 0.029413 0.021019 -0.937498 0.347362 0.019623 0.750273 0.541150
-0.071428 0.008869 0.018293 -0.998962 0.041688 0.018281 0.743363 0.488812
-0.067863 0.031807 0.034531 -0.486343 0.873745 0.004273 0.785962 0.547447
-0.052611 -0.032740 0.093311 -0.057161 -0.998047 0.024171 0.045751 0.558070
-0.012451 -0.034816 0.065255 -0.031953 -0.999451 0.006653 0.152752 0.486346
-0.055418 -0.031686 0.107279 -0.059877 -0.816553 0.574114 0.037530 0.594828
-0.055418 -0.031686 0.107279 -0.059877 -0.816553 0.574114 0.038648 0.607308
0.073171 -0.032947 0.039578 0.506058 -0.861629 -0.038331 0.573092 0.553003
-0.063202 -0.031955 0.105459 -0.218513 -0.901273 0.374096 0.018249 0.606226
-0.065714 -0.028944 0.107578 -0.438643 -0.399457 0.804987 0.010518 0.594991
-0.068045 -0.029677 0.104766 -0.799066 -0.501175 0.332072 0.004584 0.587415
-0.063202 -0.031955 0.105459 -0.218513 -0.901273 0.374096 0.017241 0.589540
0.037521 0.033040 -0.012386 0.064791 0.997833 0.008606 0.665118 0.284970
0.072099 0.030103 -0.017693 0.391064 0.920347 0.002045 0.652881 0.375839
-0.071123 -0.009802 0.051570 -0.999695 -0.003204 0.023255 0.831626 0.441782
0.072099 0.030103 -0.017693 0.391064 0.920347 0.002045 0.725762 0.712324
-0.069305 -0.028538 0.085564 -0.966155 -0.254067 0.044588 0.921780 0.394601
-0.070563 -0.028490 0.052276 -0.931364 -0.364025 0.002838 0.833756 0.394228
-0.067738 -0.031352 0.087906 -0.554521 -0.831904 0.019715 0.006431 0.542858
-0.067738 -0.031352 0.087906 -0.554521 -0.831904 0.019715 0.928006 0.387476
-0.021564 0.034908 -0.023154 -0.007843 0.999908 0.008301 0.633581 0.130747
-0.041586 0.034220 -0.008491 -0.054506 0.998444 0.009796 0.671312 0.077527
-0.068199 0.031771 0.013860 -0.449538 0.892880 0.025452 0.729023 0.006641
-0.046794 -0.033188 0.069076 -0.068972 -0.997589 -0.005524 0.062494 0.494353
-0.068841 -0.031214 0.064245 -0.566759 -0.823847 0.002808 0.004999 0.480235
0.075028 0.027575 -0.009484 0.914457 0.403363 -0.031709 0.674734 0.383088
0.074188 0.028268 -0.026246 0.875179 0.482986 -0.026582 0.630373 0.381765
0.075684 0.008352 -0.035025 0.999603 0.022858 -0.015595 0.771190 0.656618
0.074188 0.028268 -0.026246 0.875179 0.482986 -0.026582 0.748354 0.707485
0.075148 -0.012244 -0.030983 0.997131 -0.072909 -0.018769 0.760100 0.604275
0.073416 -0.029846 -0.014246 0.901944 -0.430250 -0.036744 0.715489 0.559807
-0.068199 0.031771 0.013860 -0.449538 0.892880 0.025452 0.731298 0.547050
-0.014753 -0.034650 0.039984 -0.037477 -0.999237 -0.008087 0.148274 0.419394
0.020226 -0.035123 0.018250 0.001587 -0.999908 -0.013153 0.241300 0.364068
0.072382 -0.032705 0.019876 0.502579 -0.864223 -0.022584 0.625196 0.553217
0.013455 0.034414 -0.029867 0.036683 0.999268 0.009552 0.617651 0.222838
0.072382 -0.032705 0.019876 0.502579 -0.864223 -0.022584 0.377901 0.371552
-0.068841 -0.031214 0.064245 -0.566759 -0.823847 0.002808 0.865438 0.387476
0.049160 0.032583 -0.052809 0.078768 0.996857 0.004212 0.558845 0.317584
0.053933 -0.033959 -0.000509 0.057283 -0.998169 -0.018555 0.330806 0.316532
0.071156 0.030280 -0.041098 0.329997 0.943937 0.004303 0.590949 0.374597
-0.070330 0.030689 -0.003595 -0.862575 0.505539 0.019196 0.685165 0.544032
-0.072365 -0.006737 -0.008186 -0.999634 0.008423 0.025513 0.673565 0.448697
-0.071226 -0.027418 0.030794 -0.944395 -0.328410 0.015473 0.776935 0.396637
0.071616 -0.032258 -0.007201 0.457686 -0.888730 -0.025147 0.696804 0.553806
0.071616 -0.032258 -0.007201 0.457686 -0.888730 -0.025147 0.377562 0.299920
0.073850 0.028590 -0.048819 0.852107 0.523026 0.017914 0.570672 0.382064
0.073850 0.028590 -0.048819 0.852107 0.523026 0.017914 0.808053 0.707845
-0.068534 -0.030708 0.050825 -0.449293 -0.893033 -0.024812 0.006630 0.444776
-0.044927 -0.032880 0.036489 -0.081698 -0.996521 -0.014618 0.069397 0.408313
-0.068620 0.032089 -0.021479 -0.410016 0.912046 0.003998 0.635567 0.007391
-0.070330 0.030689 -0.003595 -0.862575 0.505539 0.019196 0.682762 0.001978
-0.068534 -0.030708 0.050825 -0.449293 -0.893033 -0.024812 0.829943 0.388565
0.071584 0.030472 -0.071633 0.425153 0.905026 -0.011322 0.510237 0.377320
0.075124 0.001612 -0.061185 0.999359 -0.024781 -0.025788 0.840237 0.638931
0.074443 0.027893 -0.061979 0.912137 0.409772 -0.008820 0.842843 0.705808
-0.044806 0.034419 -0.043278 -0.054537 0.998413 0.013794 0.579168 0.070916
0.028908 0.033943 -0.072936 0.060976 0.998108 -0.002899 0.504578 0.265582
0.011642 0.034739 -0.055781 0.035615 0.999329 0.006836 0.549041 0.219449
0.054563 0.031709 -0.112664 0.066958 0.992431 -0.102878 0.400869 0.334881
-0.032060 -0.033437 0.009894 -0.063875 -0.997864 -0.012085 0.104763 0.338786
-0.001815 -0.034662 0.005922 -0.024567 -0.999603 -0.013245 0.184288 0.330129
-0.014167 0.035102 -0.043982 0.001495 0.999939 0.009552 0.578896 0.151217
0.029528 -0.034558 -0.011885 0.018311 -0.999695 -0.016358 0.267540 0.284965
0.069318 -0.032364 -0.033257 0.289132 -0.957244 -0.008545 0.373146 0.230891
0.072542 -0.028784 -0.065026 0.890652 -0.453078 -0.037355 0.849791 0.561480
-0.069149 -0.030085 0.028001 -0.481826 -0.876217 0.004456 0.769577 0.389810
-0.069149 -0.030085 0.028001 -0.481826 -0.876217 0.004456 0.006424 0.384395
0.071584 0.030472 -0.071633 0.425153 0.905026 -0.011322 0.868408 0.712170
0.073416 -0.029846 -0.014246 0.901944 -0.430250 -0.036744 0.382710 0.281406
0.071751 -0.030985 -0.047729 0.652852 -0.756981 -0.026795 0.380411 0.192780
0.071751 -0.030985 -0.047729 0.652852 -0.756981 -0.026795 0.804004 0.556226
0.069318 -0.032364 -0.033257 0.289132 -0.957244 -0.008545 0.765696 0.553003
-0.068620 0.032089 -0.021479 -0.410016 0.912046 0.003998 0.637844 0.547334
-0.070638 0.030069 -0.029874 -0.916501 0.399396 0.021668 0.615680 0.542062
-0.072308 0.010192 -0.023056 -0.998108 0.053499 0.030183 0.634000 0.491567
-0.069850 -0.029972 0.008668 -0.461715 -0.886959 0.009247 0.005779 0.333239
-0.071724 -0.028307 -0.003638 -0.906491 -0.422040 0.011322 0.685894 0.393861
-0.069850 -0.029972 0.008668 -0.461715 -0.886959 0.009247 0.718452 0.389810
-0.069158 0.032516 -0.053939 -0.401593 0.915494 0.024140 0.549714 0.007686
-0.069158 0.032516 -0.053939 -0.401593 0.915494 0.024140 0.551999 0.547939
0.074101 0.027434 -0.086721 0.943388 0.331034 -0.020600 0.908261 0.704137
-0.012583 0.035258 -0.093798 0.007660 0.999725 -0.021119 0.447266 0.157979
-0.021582 0.035318 -0.068162 -0.005127 0.999969 0.004334 0.514580 0.133059
0.011052 0.034827 -0.086868 0.037324 0.999237 -0.010926 0.466814 0.219535
0.072014 0.030129 -0.097871 0.556963 0.829798 -0.033998 0.937790 0.710766
0.072014 0.030129 -0.097871 0.556963 0.829798 -0.033998 0.440883 0.379824
-0.048079 -0.032023 -0.011618 -0.084475 -0.996399 -0.006470 0.064099 0.280936
-0.025754 -0.033438 -0.015945 -0.051790 -0.998566 -0.012909 0.122885 0.270857
0.002200 -0.034371 -0.020677 -0.016724 -0.999756 -0.012909 0.196449 0.260052
-0.072831 0.014474 -0.049783 -0.997314 0.067598 0.027131 0.563264 0.502068
-0.071496 0.031123 -0.070219 -0.872280 0.488449 0.021851 0.508979 0.544148
0.031331 -0.034068 -0.042258 0.022309 -0.999664 -0.011658 0.274136 0.204776
-0.072127 -0.027750 -0.018867 -0.923338 -0.383465 0.018952 0.645616 0.395054
-0.073211 -0.010504 -0.040783 -0.999695 -0.008728 0.022919 0.587421 0.438624
0.074186 -0.008468 -0.082538 0.997742 -0.059053 -0.031953 0.896503 0.612841
-0.047064 0.034857 -0.072088 -0.059145 0.998230 0.003265 0.502878 0.066512
0.069783 0.030194 -0.115828 0.369854 0.925443 -0.082156 0.393288 0.374921
0.022120 0.033840 -0.111006 0.048280 0.985565 -0.162206 0.403569 0.249797
0.024897 0.031673 -0.117054 0.013092 0.612293 -0.790490 0.387720 0.257396
0.048879 0.031045 -0.117384 0.020081 0.753044 -0.657613 0.388093 0.320240
0.070240 0.029813 -0.117588 0.454085 0.613392 -0.646138 0.388658 0.376213
0.073856 0.006663 -0.101412 0.998291 -0.003143 -0.058229 0.946704 0.650972
0.072259 0.027798 -0.114762 0.911924 0.346599 -0.219550 0.982414 0.704493
0.069189 -0.031523 -0.066693 0.371502 -0.927885 -0.030976 0.374866 0.142485
0.046634 -0.033299 -0.069400 0.051180 -0.998505 -0.018189 0.315918 0.133952
0.069783 0.030194 -0.115828 0.369854 0.925443 -0.082156 0.985269 0.710564
-0.070228 0.032447 -0.082763 -0.507340 0.861538 -0.017304 0.473448 0.006396
-0.071496 0.031123 -0.070219 -0.872280 0.488449 0.021851 0.506549 0.002419
0.069633 -0.030655 -0.095562 0.463149 -0.885647 -0.033265 0.930492 0.556093
0.071661 -0.028237 -0.095506 0.921842 -0.385388 -0.040712 0.930401 0.562253
0.072542 -0.028784 -0.065026 0.890652 -0.453078 -0.037355 0.383546 0.147100
0.069633 -0.030655 -0.095562 0.463149 -0.885647 -0.033265 0.377807 0.066190
-0.070218 -0.029657 -0.013363 -0.425642 -0.904874 -0.004639 0.006171 0.274973
-0.070218 -0.029657 -0.013363 -0.425642 -0.904874 -0.004639 0.660191 0.390286
0.070544 -0.028256 -0.118469 0.777093 -0.431623 -0.458052 0.991117 0.561738
0.072554 -0.004566 -0.116064 0.965392 -0.022614 -0.259743 0.985231 0.622090
-0.018365 -0.033483 -0.046461 -0.040559 -0.999115 -0.009095 0.144133 0.190630
0.001246 -0.034035 -0.044847 -0.013825 -0.999786 -0.013825 0.195439 0.196093
0.022368 -0.033768 -0.069798 0.004456 -0.999817 -0.017182 0.252339 0.131419
-0.051409 0.034103 -0.110703 -0.065615 0.977691 -0.199408 0.400550 0.057157
-0.035380 0.034827 -0.107712 -0.014496 0.990478 -0.136845 0.409293 0.098991
-0.073710 0.014002 -0.078205 -0.997070 0.072817 0.022279 0.488111 0.500444
-0.072394 0.028069 -0.112903 -0.883877 0.297433 -0.360881 0.396147 0.535739
-0.070228 0.032447 -0.082763 -0.507340 0.861538 -0.017304 0.475782 0.547334
-0.074074 -0.007606 -0.075576 -0.999695 -0.011170 0.021241 0.495373 0.445482
-0.070520 -0.029686 -0.033491 -0.413953 -0.910184 0.011567 0.006620 0.221740
-0.049333 -0.031732 -0.045775 -0.075472 -0.997131 -0.003388 0.062917 0.190555
-0.011317 0.034383 -0.111332 -0.000671 0.979888 -0.199469 0.400968 0.162218
-0.012996 -0.033179 -0.081897 -0.022614 -0.999542 -0.019593 0.160390 0.097272
0.072259 0.027798 -0.114762 0.911924 0.346599 -0.219550 0.396234 0.381360
-0.070520 -0.029686 -0.033491 -0.413953 -0.910184 0.011567 0.606965 0.389912
-0.072762 -0.028231 -0.055642 -0.884091 -0.467025 0.015351 0.548375 0.393282
0.071983 0.012997 -0.119211 0.555895 0.053743 -0.829493 0.993889 0.666730
0.070240 0.029813 -0.117588 0.454085 0.613392 -0.646138 0.989918 0.709559
-0.036878 -0.032470 -0.073002 -0.052644 -0.998566 -0.006989 0.097242 0.119331
-0.067450 0.031758 -0.113073 -0.221564 0.974914 -0.020569 0.393449 0.015266
-0.070317 0.030729 -0.114164 -0.508988 0.596698 -0.620350 0.392767 0.542495
-0.070317 0.030729 -0.114164 -0.508988 0.596698 -0.620350 0.390418 0.007814
0.070240 0.029813 -0.117588 0.454085 0.613392 -0.646138 0.394627 0.874459
0.047292 0.028588 -0.118165 -0.007569 0.172735 -0.984924 0.454725 0.870770
0.048879 0.031045 -0.117384 0.020081 0.753044 -0.657613 0.450623 0.877063
0.070652 0.005549 -0.119311 0.351115 -0.029298 -0.935850 0.392964 0.812714
0.071983 0.012997 -0.119211 0.555895 0.053743 -0.829493 0.389658 0.831704
0.010079 0.033027 -0.115407 -0.004822 0.819025 -0.573687 0.391305 0.218487
0.024990 -0.033273 -0.095547 0.003967 -0.999329 -0.036256 0.260799 0.063502
0.044367 -0.032768 -0.103085 0.045534 -0.997955 -0.044313 0.312051 0.044757
-0.070580 -0.029875 -0.056894 -0.352855 -0.935667 0.003143 0.007906 0.159863
-0.072762 -0.028231 -0.055642 -0.884091 -0.467025 0.015351 0.002105 0.163039
-0.041907 0.032627 -0.115258 -0.015961 0.635182 -0.772149 0.388999 0.082293
-0.014001 0.032724 -0.115814 -0.015503 0.731162 -0.681997 0.388978 0.155426
0.024897 0.031673 -0.117054 0.013092 0.612293 -0.790490 0.513472 0.878064
0.072554 -0.004566 -0.116064 0.965392 -0.022614 -0.259743 0.387720 0.787012
0.005423 0.030226 -0.116993 -0.004425 0.279275 -0.960173 0.564460 0.873893
0.010079 0.033027 -0.115407 -0.004822 0.819025 -0.573687 0.552322 0.881138
0.000020 0.012434 -0.118119 -0.025666 0.036317 -0.998993 0.578188 0.828475
0.032343 -0.001562 -0.119278 -0.019044 0.021027 -0.999573 0.493165 0.793658
-0.014001 0.032724 -0.115814 -0.015503 0.731162 -0.681997 0.615409 0.879767
-0.068067 0.031639 -0.114297 -0.265297 0.744102 -0.613117 0.390185 0.013712
-0.074473 0.007049 -0.098746 -0.999146 0.040651 0.000092 0.433894 0.482439
0.070994 -0.013078 -0.119314 0.606189 -0.023591 -0.794946 0.993650 0.600356
0.070652 0.005549 -0.119311 0.351115 -0.029298 -0.935850 0.994003 0.647767
0.067564 -0.030330 -0.114775 0.288186 -0.953490 -0.088168 0.373568 0.015269
0.070544 -0.028256 -0.118469 0.777093 -0.431623 -0.458052 0.381603 0.005688
-0.073255 -0.026209 -0.074543 -0.974181 -0.225501 0.007630 0.498366 0.398148
-0.073774 -0.025770 -0.098032 -0.947844 -0.317484 -0.026887 0.436245 0.398915
-0.017058 0.030290 -0.116838 -0.022919 0.225410 -0.973968 0.623364 0.873496
-0.041907 0.032627 -0.115258 -0.015961 0.635182 -0.772149 0.688519 0.878825
0.068263 -0.029420 -0.119528 0.294320 -0.620045 -0.727256 0.398373 0.723647
0.070994 -0.013078 -0.119314 0.606189 -0.023591 -0.794946 0.391615 0.765311
-0.071934 -0.029124 -0.075911 -0.596881 -0.802179 -0.013977 0.494784 0.390712
-0.071934 -0.029124 -0.075911 -0.596881 -0.802179 -0.013977 0.005528 0.109503
-0.053960 -0.031391 -0.086879 -0.089938 -0.995758 -0.018220 0.053321 0.081600
-0.073078 0.003777 -0.116222 -0.534410 0.050356 -0.843684 0.387720 0.473856
-0.074357 0.003063 -0.113928 -0.968017 0.033967 -0.248482 0.393801 0.472069
-0.072394 0.028069 -0.112903 -0.883877 0.297433 -0.360881 0.768278 0.866462
-0.070317 0.030729 -0.114164 -0.508988 0.596698 -0.620350 0.762905 0.873284
-0.073078 0.003777 -0.116222 -0.534410 0.050356 -0.843684 0.769492 0.804616
-0.068067 0.031639 -0.114297 -0.265297 0.744102 -0.613117 0.757034 0.875656
-0.057903 0.031121 -0.115566 -0.054079 0.394910 -0.917112 0.730396 0.874593
-0.042730 0.000367 -0.117721 -0.026429 0.024171 -0.999329 0.689902 0.796695
0.055389 -0.031041 -0.118216 0.038728 -0.890774 -0.452742 0.341871 0.005425
0.038234 -0.031903 -0.116875 0.009125 -0.927488 -0.373730 0.296825 0.007927
-0.000948 -0.032914 -0.099789 -0.013977 -0.999023 -0.041841 0.193073 0.050704
0.004347 -0.032118 -0.114748 -0.012574 -0.956786 -0.290506 0.207871 0.011480
-0.033987 -0.032167 -0.100879 -0.041078 -0.998077 -0.045991 0.106538 0.045807
0.070544 -0.028256 -0.118469 0.777093 -0.431623 -0.458052 0.392420 0.726666
0.068263 -0.029420 -0.119528 0.294320 -0.620045 -0.727256 0.375691 0.002744
-0.073880 -0.025069 -0.112521 -0.926115 -0.361431 -0.107944 0.397922 0.400487
-0.069867 -0.028971 -0.112934 -0.378430 -0.881069 -0.283731 0.013228 0.011747
-0.071968 -0.028764 -0.094978 -0.552660 -0.833064 -0.023194 0.006612 0.059090
0.055389 -0.031041 -0.118216 0.038728 -0.890774 -0.452742 0.432058 0.719201
0.040267 -0.029916 -0.119161 -0.013977 -0.412427 -0.910855 0.471711 0.721686
0.038234 -0.031903 -0.116875 0.009125 -0.927488 -0.373730 0.476978 0.716577
-0.071968 -0.028764 -0.094978 -0.552660 -0.833064 -0.023194 0.444355 0.391345
0.020726 -0.031053 -0.118017 -0.022492 -0.626148 -0.779351 0.251003 0.003835
0.040267 -0.029916 -0.119161 -0.013977 -0.412427 -0.910855 0.302290 0.002006
-0.073382 -0.011896 -0.116172 -0.634938 -0.027345 -0.772057 0.388076 0.433963
-0.047906 -0.030697 -0.114446 -0.062349 -0.975005 -0.213111 0.070888 0.009088
-0.017834 -0.031354 -0.116613 -0.019440 -0.830988 -0.555925 0.149846 0.005198
-0.058251 -0.029070 -0.116825 -0.098392 -0.605457 -0.789758 0.729847 0.721383
-0.073382 -0.011896 -0.116172 -0.634938 -0.027345 -0.772057 0.769907 0.764717
0.004873 -0.029884 -0.118332 -0.022248 -0.477737 -0.878201 0.209465 0.002038
-0.069867 -0.028971 -0.112934 -0.378430 -0.881069 -0.283731 0.396865 0.390557
0.020995 -0.026342 -0.118832 -0.024232 -0.077609 -0.996673 0.522290 0.730303
0.020726 -0.031053 -0.118017 -0.022492 -0.626148 -0.779351 0.522877 0.718306
0.004873 -0.029884 -0.118332 -0.022248 -0.477737 -0.878201 0.564444 0.720885
-0.072974 -0.025774 -0.115264 -0.634571 -0.419111 -0.649312 0.390672 0.398652
-0.073880 -0.025069 -0.112521 -0.926115 -0.361431 -0.107944 0.002675 0.012598
-0.072974 -0.025774 -0.115264 -0.634571 -0.419111 -0.649312 0.005219 0.005399
-0.015728 -0.028059 -0.118245 -0.021363 -0.205176 -0.978484 0.618464 0.725017
-0.017834 -0.031354 -0.116613 -0.019440 -0.830988 -0.555925 0.623893 0.716577
-0.035797 -0.030118 -0.117416 -0.046846 -0.568041 -0.821650 0.102808 0.001978
-0.058251 -0.029070 -0.116825 -0.098392 -0.605457 -0.789758 0.043914 0.002167
-0.035797 -0.030118 -0.117416 -0.046846 -0.568041 -0.821650 0.670993 0.719275
-0.072974 -0.025774 -0.115264 -0.634571 -0.419111 -0.649312 0.768496 0.729403
-0.069867 -0.028971 -0.112934 -0.378430 -0.881069 -0.283731 0.760266 0.721342
3 0 1 2
3 3 4 5
3 3 6 4
3 0 7 1
3 8 9 10
3 1 11 7
3 1 12 11
3 13 14 15
3 13 15 9
3 4 6 16
3 4 16 17
3 4 17 18
3 9 19 10
3 9 20 19
3 9 15 20
3 14 21 15
3 18 17 22
3 15 21 23
3 15 23 20
3 12 24 25
3 10 26 27
3 12 28 29
3 12 29 30
3 12 30 11
3 21 31 23
3 22 17 32
3 19 20 33
3 19 33 34
3 19 34 35
3 24 36 28
3 24 28 25
3 23 37 38
3 23 31 37
3 23 38 20
3 17 16 39
3 17 40 32
3 17 39 40
3 31 41 37
3 38 37 42
3 38 43 44
3 38 44 20
3 38 42 43
3 20 44 33
3 7 11 45
3 7 45 46
3 6 47 48
3 6 48 16
3 16 48 49
3 16 49 39
3 40 39 50
3 40 50 51
3 41 52 37
3 37 52 53
3 37 53 42
3 34 54 55
3 34 33 54
3 34 55 35
3 35 55 56
3 36 57 58
3 36 58 28
3 28 58 29
3 33 44 54
3 11 30 59
3 11 59 45
3 50 60 51
3 50 61 62
3 50 62 60
3 50 39 61
3 51 60 63
3 52 64 53
3 53 64 65
3 53 66 67
3 53 67 68
3 53 65 66
3 53 68 42
3 39 49 61
3 29 58 69
3 29 69 30
3 42 68 43
3 44 70 54
3 44 71 70
3 44 43 71
3 60 62 72
3 60 73 63
3 60 72 73
3 63 73 74
3 65 75 76
3 65 76 66
3 58 77 69
3 78 79 80
3 78 81 79
3 54 82 55
3 54 70 82
3 55 83 56
3 55 82 83
3 73 72 84
3 75 85 76
3 73 84 86
3 81 87 79
3 76 85 88
3 76 88 66
3 45 89 46
3 45 59 89
3 43 68 90
3 43 90 71
3 30 69 91
3 30 91 59
3 66 88 67
3 68 67 90
3 61 49 92
3 61 92 62
3 93 94 95
3 93 96 97
3 93 98 94
3 93 97 98
3 67 99 90
3 67 88 99
3 90 100 71
3 90 99 100
3 48 101 49
3 48 102 101
3 48 103 102
3 48 104 103
3 48 47 104
3 49 101 92
3 72 105 84
3 72 62 106
3 72 106 105
3 107 108 109
3 107 109 87
3 62 92 106
3 96 110 97
3 84 105 111
3 87 112 79
3 87 109 112
3 79 112 113
3 79 113 114
3 79 114 80
3 99 115 100
3 99 88 115
3 108 116 109
3 70 71 117
3 70 117 118
3 94 119 120
3 94 98 119
3 121 122 115
3 94 123 95
3 46 89 124
3 69 77 91
3 80 114 125
3 71 126 117
3 71 100 126
3 100 115 122
3 100 122 126
3 59 127 89
3 59 91 128
3 59 128 127
3 109 116 129
3 109 129 112
3 89 127 130
3 89 131 132
3 89 130 131
3 89 132 124
3 101 133 134
3 101 134 92
3 101 102 133
3 106 92 135
3 106 135 136
3 106 136 105
3 97 110 137
3 97 137 98
3 104 138 103
3 98 139 119
3 98 137 139
3 113 112 140
3 113 141 114
3 113 140 141
3 112 129 140
3 105 136 111
3 142 143 116
3 142 144 143
3 116 143 129
3 92 134 135
3 114 141 145
3 114 145 125
3 110 146 147
3 110 148 146
3 110 147 137
3 129 149 150
3 129 143 149
3 129 150 140
3 144 151 143
3 126 122 152
3 91 153 128
3 122 154 152
3 155 156 157
3 143 151 149
3 103 158 102
3 103 159 158
3 103 138 159
3 137 160 139
3 137 147 160
3 132 131 161
3 139 162 119
3 139 160 163
3 139 163 162
3 156 164 157
3 119 162 165
3 102 158 133
3 134 166 167
3 134 133 166
3 134 167 135
3 151 157 149
3 135 168 136
3 135 167 168
3 149 169 150
3 149 157 164
3 149 164 170
3 149 170 169
3 171 172 159
3 131 130 173
3 131 173 174
3 130 175 173
3 130 127 175
3 127 176 175
3 127 128 176
3 148 177 146
3 140 178 179
3 140 150 178
3 140 179 141
3 128 180 176
3 128 153 180
3 133 181 166
3 133 158 181
3 145 141 182
3 162 163 183
3 162 183 165
3 158 159 184
3 158 184 181
3 141 185 182
3 141 179 185
3 150 169 178
3 159 172 186
3 159 186 184
3 146 177 187
3 146 187 147
3 147 188 189
3 147 189 160
3 147 187 188
3 160 189 163
3 180 190 176
3 182 185 191
3 172 192 186
3 174 173 193
3 169 194 195
3 169 170 194
3 169 195 178
3 168 196 197
3 168 167 196
3 183 163 198
3 186 192 199
3 186 199 184
3 173 200 201
3 173 175 200
3 173 201 193
3 167 202 196
3 167 166 202
3 184 203 204
3 184 204 181
3 184 205 203
3 184 199 205
3 178 195 206
3 178 206 207
3 178 207 179
3 163 189 198
3 166 181 208
3 166 208 202
3 181 204 208
3 185 179 209
3 185 210 191
3 185 209 210
3 179 207 209
3 175 211 200
3 175 176 211
3 198 189 212
3 194 213 195
3 193 201 214
3 215 210 216
3 176 217 211
3 176 190 218
3 187 219 220
3 187 220 221
3 187 221 188
3 195 213 222
3 195 222 206
3 189 223 224
3 189 224 212
3 189 188 223
3 196 202 225
3 219 226 220
3 201 200 227
3 201 227 214
3 204 228 229
3 204 230 228
3 204 203 230
3 204 229 208
3 214 227 231
3 199 232 205
3 208 229 202
3 206 222 233
3 206 233 234
3 206 234 207
3 207 234 235
3 207 235 209
3 203 205 230
3 220 236 221
3 220 237 236
3 220 226 237
3 209 235 238
3 209 238 210
3 188 239 223
3 188 221 240
3 188 240 239
3 200 211 241
3 200 241 227
3 202 229 242
3 202 242 225
3 205 232 243
3 205 244 230
3 205 245 244
3 205 246 245
3 205 243 247
3 205 247 246
3 227 241 248
3 227 248 249
3 227 249 231
3 221 236 240
3 210 250 216
3 210 251 250
3 210 238 251
3 231 249 252
3 225 242 253
3 225 253 254
3 211 255 256
3 211 256 241
3 257 250 258
3 257 216 250
3 222 259 233
3 224 223 260
3 230 244 228
3 229 228 242
3 223 239 260
3 241 261 262
3 241 262 248
3 241 256 261
3 235 263 264
3 235 234 263
3 235 264 238
3 238 265 251
3 238 264 265
3 242 266 253
3 242 267 266
3 242 228 267
3 237 268 236
3 237 269 268
3 237 270 269
3 236 271 240
3 236 268 271
3 234 233 263
3 233 259 272
3 233 272 273
3 233 273 263
3 248 262 249
3 228 274 267
3 228 244 274
3 264 275 265
3 264 263 275
3 243 276 247
3 250 251 258
3 239 277 260
3 239 278 277
3 239 240 278
3 249 279 280
3 249 262 279
3 240 271 278
3 263 273 281
3 263 281 275
3 253 266 282
3 270 283 269
3 253 282 284
3 285 286 287
3 285 288 286
3 285 289 288
3 244 245 290
3 244 290 274
3 251 291 292
3 251 265 291
3 251 292 258
3 272 293 273
3 272 294 293
3 267 295 266
3 267 296 295
3 267 274 296
3 287 286 297
3 289 298 288
3 273 293 281
3 297 299 300
3 297 301 299
3 297 302 301
3 297 286 302
3 290 296 274
3 300 299 303
3 266 304 282
3 266 295 304
3 268 269 305
3 268 305 271
3 256 255 261
3 262 306 307
3 262 261 306
3 265 275 291
3 258 308 309
3 258 292 308
3 271 310 278
3 271 311 310
3 271 305 311
3 303 299 312
3 303 312 313
3 288 314 302
3 288 315 314
3 288 302 286
3 282 304 284
3 278 310 316
3 294 317 293
3 293 318 281
3 293 317 318
3 269 319 320
3 269 320 305
3 321 322 323
3 322 324 323
3 313 325 324
3 313 326 325
3 313 312 326
3 292 327 308
3 292 328 327
3 292 291 328
3 291 275 329
3 291 330 328
3 291 329 330
3 275 281 331
3 275 331 329
3 281 318 331
3 315 332 314
3 309 308 333
3 324 325 323
3 308 327 333
3 305 334 311
3 305 320 334
3 310 311 316
3 318 335 331
3 318 336 335
3 318 317 336
3 337 338 314
3 337 339 338
3 329 331 330
3 316 311 340
3 314 338 302
3 328 330 341
3 328 341 342
3 320 343 334
3 320 319 343
3 331 335 344
3 331 344 345
3 331 345 330
3 323 325 326
3 323 346 347
3 323 326 346
3 330 348 341
3 330 345 348
3 311 334 349
3 311 349 340
3 338 350 302
3 338 351 350
3 351 352 350
3 334 343 353
3 354 355 335
3 352 356 301
3 352 301 302
3 352 302 350
3 352 357 356
3 344 358 345
3 344 359 358
3 344 335 359
3 357 360 356
3 347 346 361
3 362 361 346
3 360 326 356
3 360 346 326
3 299 301 312
3 312 301 356
3 312 356 326
